<?xml version="1.0" encoding="utf-8"?>
<!-- Generator: Adobe Illustrator 24.0.1, SVG Export Plug-In . SVG Version: 6.00 Build 0)  -->
<svg version="1.1" baseProfile="tiny" id="Layer_1" xmlns="http://www.w3.org/2000/svg" xmlns:xlink="http://www.w3.org/1999/xlink"
	 x="0px" y="0px" viewBox="0 0 100 100" xml:space="preserve">
<path fill="#575757" d="M55.6,0c-0.5,0.1-0.9,0.2-1.3,0.5c-0.4,0.3-0.7,0.6-1,1L18.5,55.8c-0.3,0.5-0.5,1-0.5,1.6
	c0,0.6,0.1,1.1,0.4,1.6s0.7,0.9,1.2,1.2c0.5,0.3,1.1,0.4,1.6,0.4h19.5v36.2c0,0.7,0.2,1.4,0.6,1.9c0.4,0.5,1,0.9,1.7,1.1
	c0.7,0.2,1.4,0.2,2-0.1c0.6-0.2,1.2-0.7,1.6-1.3l34.9-54.3c0.3-0.5,0.5-1,0.5-1.6c0-0.6-0.1-1.1-0.4-1.6c-0.3-0.5-0.7-0.9-1.2-1.2
	c-0.5-0.3-1.1-0.4-1.6-0.4H59.2V3.2c0-0.5-0.1-0.9-0.3-1.3c-0.2-0.4-0.5-0.8-0.8-1.1c-0.3-0.3-0.7-0.5-1.2-0.7C56.5,0,56.1,0,55.6,0
	z M52.8,14.1v28.4c0,0.8,0.3,1.7,0.9,2.3c0.6,0.6,1.4,0.9,2.3,0.9h16.9L47.1,86V57.5c0-0.8-0.3-1.7-0.9-2.3
	c-0.6-0.6-1.4-0.9-2.3-0.9H27.1L52.8,14.1z"/>
</svg>
