<?xml version="1.0" encoding="utf-8"?>
<!-- Generator: Adobe Illustrator 24.0.1, SVG Export Plug-In . SVG Version: 6.00 Build 0)  -->
<svg version="1.1" id="Layer_1" xmlns="http://www.w3.org/2000/svg" xmlns:xlink="http://www.w3.org/1999/xlink" x="0px" y="0px"
	 viewBox="0 0 100 100" style="enable-background:new 0 0 100 100;" xml:space="preserve">
<style type="text/css">
	.st0{fill:url(#SVGID_1_);}
</style>
<linearGradient id="SVGID_1_" gradientUnits="userSpaceOnUse" x1="50" y1="64.5" x2="50" y2="-20.5" gradientTransform="matrix(1 0 0 -1 0 72)">
	<stop  offset="0" style="stop-color:#FF512F"/>
	<stop  offset="1" style="stop-color:#DD2476"/>
</linearGradient>
<path class="st0" d="M87.2,28.8c2.9,0,5.3,2.4,5.3,5.3v37.2c0,2.9-2.4,5.3-5.3,5.3H76.6v15.9L60.6,76.6H34.1l9.7-10.6h32.8
	c2.9,0,5.3-2.4,5.3-5.3V28.8H87.2z M12.8,7.5h53.1c2.9,0,5.3,2.4,5.3,5.3V50c0,2.9-2.4,5.3-5.3,5.3H39.4L23.4,71.2V55.3H12.8
	c-2.9,0-5.3-2.4-5.3-5.3V12.8C7.5,9.9,9.9,7.5,12.8,7.5z"/>
</svg>
