<?xml version="1.0" encoding="utf-8"?>
<!-- Generator: Adobe Illustrator 24.0.1, SVG Export Plug-In . SVG Version: 6.00 Build 0)  -->
<svg version="1.1" id="Layer_1" xmlns="http://www.w3.org/2000/svg" xmlns:xlink="http://www.w3.org/1999/xlink" x="0px" y="0px"
	 viewBox="0 0 100 100" style="enable-background:new 0 0 100 100;" xml:space="preserve">
<style type="text/css">
	.st0{fill:url(#SVGID_1_);}
</style>
<linearGradient id="SVGID_1_" gradientUnits="userSpaceOnUse" x1="50" y1="66.5" x2="50" y2="-18.5" gradientTransform="matrix(1 0 0 -1 0 74)">
	<stop  offset="0" style="stop-color:#FF512F"/>
	<stop  offset="1" style="stop-color:#DD2476"/>
</linearGradient>
<path class="st0" d="M50.1,71.5c-11.8,0-21.4-9.6-21.4-21.4s9.6-21.4,21.4-21.4c11.8,0,21.4,9.6,21.4,21.4S62,71.5,50.1,71.5z
	 M50.1,65.5c8.6,0,15.5-6.9,15.5-15.5s-6.9-15.5-15.5-15.5S34.7,41.5,34.7,50S41.6,65.5,50.1,65.5z M92.5,46.8v6.4
	c0,2.8-1.9,5.2-4.6,5.9l-4.8,1.2c-0.6,2-1.4,3.9-2.4,5.8l2.5,4.2c1.4,2.4,1,5.5-0.9,7.4l-4.5,4.5c-2,2-5,2.4-7.4,0.9l-4.2-2.5
	c-1.8,0.9-3.7,1.7-5.6,2.3l-1.2,4.8c-0.7,2.7-3.1,4.6-5.9,4.6H47c-2.8,0-5.2-1.9-5.9-4.6l-1.2-4.8c-2-0.6-3.9-1.4-5.7-2.4l-4.4,2.6
	c-2.4,1.4-5.5,1-7.4-0.9l-4.5-4.5c-2-2-2.4-5-0.9-7.4l2.6-4.4c-1-1.8-1.7-3.7-2.4-5.7l-5-1.3c-2.7-0.7-4.6-3.1-4.6-5.9v-6.4
	c0-2.8,1.9-5.2,4.6-5.9l5-1.3c0.6-1.9,1.4-3.7,2.3-5.4l-2.6-4.5c-1.4-2.4-1-5.5,0.9-7.4l4.5-4.5c2-2,5-2.4,7.4-0.9l4.5,2.6
	c1.8-0.9,3.7-1.7,5.6-2.3l1.3-5c0.7-2.7,3.1-4.6,5.9-4.6h6.4c2.8,0,5.2,1.9,5.9,4.6l1.3,5c1.9,0.6,3.8,1.4,5.5,2.3l4.4-2.6
	c2.4-1.4,5.5-1,7.4,0.9l4.5,4.5c2,2,2.4,5,0.9,7.4l-2.6,4.4c0.9,1.8,1.7,3.6,2.3,5.5l4.8,1.3C90.6,41.6,92.5,44,92.5,46.8z
	 M86.4,46.6L80,45c-1-0.3-1.9-1.1-2.1-2.1c-0.7-2.5-1.7-5-3-7.3c-0.5-0.9-0.5-2.1,0-3l3.4-5.8c0-0.1,0-0.2,0-0.2L73.7,22
	c-0.1-0.1-0.2-0.1-0.2,0l-5.8,3.4c-0.9,0.5-2.1,0.5-3,0c-2.3-1.3-4.7-2.4-7.3-3c-1-0.3-1.9-1.1-2.1-2.1l-1.7-6.6
	c0-0.1-0.1-0.1-0.2-0.1H47c-0.1,0-0.2,0.1-0.2,0.1l-1.7,6.6c-0.3,1-1.1,1.9-2.1,2.1c-2.6,0.7-5,1.7-7.3,3c-0.9,0.5-2.1,0.5-3,0
	l-6-3.5c-0.1,0-0.2,0-0.2,0l-4.5,4.5c-0.1,0.1-0.1,0.2,0,0.2l3.5,6c0.5,0.9,0.5,2.1,0,3c-1.3,2.2-2.3,4.7-3,7.2
	c-0.3,1-1.1,1.8-2.1,2.1l-6.7,1.7c-0.1,0-0.1,0.1-0.1,0.2v6.4c0,0.1,0.1,0.2,0.2,0.2l6.6,1.7c1,0.3,1.9,1.1,2.1,2.1
	c0.7,2.6,1.7,5.1,3.1,7.4c0.5,0.9,0.6,2.1,0,3L22,73.5c0,0.1,0,0.2,0,0.2l4.5,4.5c0.1,0.1,0.2,0.1,0.2,0l5.8-3.4
	c0.9-0.5,2.1-0.5,3,0c2.3,1.4,4.8,2.4,7.4,3.1c1,0.3,1.9,1.1,2.1,2.1l1.7,6.4c0,0.1,0.1,0.1,0.2,0.1h6.4c0.1,0,0.2-0.1,0.2-0.1
	l1.7-6.5c0.3-1,1.1-1.9,2.1-2.1c2.6-0.7,5.1-1.7,7.3-3.1c0.9-0.6,2.1-0.6,3,0l5.7,3.4c0.1,0,0.2,0,0.2,0l4.5-4.5
	c0.1-0.1,0.1-0.2,0-0.2l-3.4-5.7c-0.5-0.9-0.5-2.1,0-3c1.4-2.3,2.4-4.8,3.1-7.5c0.3-1,1.1-1.9,2.1-2.1l6.4-1.7
	c0.1,0,0.1-0.1,0.1-0.2v-6.4C86.6,46.7,86.5,46.7,86.4,46.6z"/>
</svg>
