<?xml version="1.0" encoding="utf-8"?>
<!-- Generator: Adobe Illustrator 24.0.1, SVG Export Plug-In . SVG Version: 6.00 Build 0)  -->
<svg version="1.2" baseProfile="tiny" id="Layer_1" xmlns="http://www.w3.org/2000/svg" xmlns:xlink="http://www.w3.org/1999/xlink"
	 x="0px" y="0px" viewBox="0 0 500 100" xml:space="preserve">
<g id="guitar-acoustic">
	
		<rect x="33" y="32.1" transform="matrix(0.7071 -0.7071 0.7071 0.7071 -6.1081 54.1169)" fill="#C57C15" width="58.6" height="4.7"/>
	
		<rect x="36.3" y="35.4" transform="matrix(0.7071 -0.7071 0.7071 0.7071 -7.4873 57.4112)" fill="#743926" width="58.6" height="4.7"/>
	<rect x="79.2" y="8.9" transform="matrix(0.707 -0.7072 0.7072 0.707 16.629 59.1891)" fill="#C9C8CD" width="1.2" height="1.2"/>
	<rect x="82.5" y="5.6" transform="matrix(0.707 -0.7072 0.7072 0.707 19.9273 60.5675)" fill="#C9C8CD" width="1.2" height="1.2"/>
	
		<rect x="86.1" y="2.2" transform="matrix(0.7071 -0.7071 0.7071 0.7071 23.0544 62.3012)" fill="#C9C8CD" width="1.2" height="2.3"/>
	
		<rect x="89.9" y="19.8" transform="matrix(0.707 -0.7072 0.7072 0.707 12.1031 69.9524)" fill="#C9C8CD" width="1.2" height="1.2"/>
	
		<rect x="93.2" y="16.3" transform="matrix(0.707 -0.7072 0.7072 0.707 15.5002 71.2909)" fill="#C9C8CD" width="1.2" height="1.2"/>
	<rect x="96.1" y="12" transform="matrix(0.707 -0.7072 0.7072 0.707 18.9925 72.2355)" fill="#C9C8CD" width="1.2" height="2.3"/>
	<path fill="#3E3C4D" d="M88.8,21.2c-0.9,0.9-2.4,0.9-3.3,0l-6.6-6.6c-0.9-0.9-0.9-2.4,0-3.3l9-9.2c0.9-0.9,2.4-0.9,3.3,0l6.7,6.6
		c0.9,0.9,0.9,2.4,0,3.3L88.8,21.2z"/>
	<path fill="#D79038" d="M9.8,90.2c9.6,9.6,20.6,14.3,30.9,3.9c3.7-3.7,6.2-8.2,7.4-12.9c0.6-2.2,2.3-4.8,4.1-6
		c1.1-0.7,2.1-1.6,3.1-2.6c8.3-8.3,5.7-18.2-2-25.9L9.8,90.2z"/>
	<path fill="#F8B54F" d="M53.2,46.7c-7.7-7.7-17.6-10.2-25.9-2c-1,1-1.8,2-2.6,3.1c-1.3,1.8-3.8,3.6-6,4.1
		c-4.7,1.2-9.2,3.6-12.9,7.4c-10.3,10.4-5.6,21.3,4,30.9L53.2,46.7z"/>
	<circle fill="#21223C" cx="36.8" cy="63.2" r="8.2"/>
	<path fill="#743926" d="M28.6,82.2L28.6,82.2c-1.4,1.4-3.6,1.4-5,0l-5.8-5.8c-1.4-1.4-1.4-3.6,0-5l0,0L28.6,82.2z"/>
	<path fill="#3E3C4D" d="M78.8,9.6c-0.5,0.5-1.2,0.5-1.7,0l0,0c-0.5-0.5-0.5-1.2,0-1.7L78,7.1c0.5-0.5,1.2-0.5,1.7,0l0,0
		c0.5,0.5,0.5,1.2,0,1.7L78.8,9.6z M82.1,6.2c-0.5,0.5-1.2,0.5-1.7,0l0,0c-0.5-0.5-0.5-1.2,0-1.7l0.8-0.8c0.5-0.5,1.2-0.5,1.7,0l0,0
		c0.5,0.5,0.5,1.2,0,1.7L82.1,6.2z M90.4,21.2c-0.5,0.5-0.5,1.2,0,1.7l0,0c0.5,0.5,1.2,0.5,1.7,0l0.8-0.8c0.5-0.5,0.5-1.2,0-1.7l0,0
		c-0.5-0.5-1.2-0.5-1.7,0L90.4,21.2z M93.8,17.9c-0.5,0.5-0.5,1.2,0,1.7l0,0c0.5,0.5,1.2,0.5,1.7,0l0.8-0.8c0.5-0.5,0.5-1.2,0-1.7
		l0,0c-0.5-0.5-1.2-0.5-1.7,0L93.8,17.9z M85.5,2.9c-0.5,0.5-1.2,0.5-1.7,0l0,0c-0.5-0.5-0.5-1.2,0-1.7l0.8-0.8
		c0.5-0.5,1.2-0.5,1.7,0l0,0c0.5,0.5,0.5,1.2,0,1.7L85.5,2.9z M97.1,14.5c-0.5,0.5-0.5,1.2,0,1.7l0,0c0.5,0.5,1.2,0.5,1.7,0l0.8-0.8
		c0.5-0.5,0.5-1.2,0-1.7l0,0c-0.5-0.5-1.2-0.5-1.7,0L97.1,14.5z"/>
	<circle fill="#D1D9DA" cx="88.4" cy="5" r="1.2"/>
	<circle fill="#D1D9DA" cx="85" cy="8.3" r="1.2"/>
	<circle fill="#D1D9DA" cx="81.7" cy="11.6" r="1.2"/>
	<circle fill="#D1D9DA" cx="95" cy="11.6" r="1.2"/>
	<circle fill="#D1D9DA" cx="91.7" cy="15" r="1.2"/>
	<circle fill="#D1D9DA" cx="88.4" cy="18.3" r="1.2"/>
</g>
<g>
	
		<rect x="162.5" y="30.6" transform="matrix(0.7071 -0.7071 0.7071 0.7071 24.6478 127.9002)" fill="#3E3C4D" width="8.4" height="7.2"/>
	
		<rect x="169.1" y="23.4" transform="matrix(0.7072 -0.707 0.707 0.7072 31.8341 130.8496)" fill="#3E3C4D" width="9.6" height="7.2"/>
	
		<rect x="156.7" y="37" transform="matrix(0.707 -0.7072 0.7072 0.707 18.2871 125.2499)" fill="#3E3C4D" width="7.2" height="7.2"/>
	
		<rect x="151.8" y="42.5" transform="matrix(0.7071 -0.7071 0.7071 0.7071 12.7778 122.9533)" fill="#3E3C4D" width="6" height="7.2"/>
	<rect x="147.8" y="47" transform="matrix(0.7072 -0.707 0.707 0.7072 8.1666 120.9876)" fill="#3E3C4D" width="4.8" height="7.2"/>
	
		<rect x="144.5" y="50.8" transform="matrix(0.7071 -0.7071 0.7071 0.7071 4.3801 119.4259)" fill="#3E3C4D" width="3.6" height="7.2"/>
	
		<rect x="142.2" y="53.8" transform="matrix(0.7071 -0.7071 0.7071 0.7071 1.3799 118.2173)" fill="#3E3C4D" width="2.4" height="7.2"/>
	
		<rect x="139.7" y="56.3" transform="matrix(0.7071 -0.7071 0.7071 0.7071 -1.12 117.1519)" fill="#3E3C4D" width="2.4" height="7.2"/>
	
		<rect x="169.5" y="27.2" transform="matrix(0.7072 -0.707 0.707 0.7072 28.0354 129.2727)" fill="#D1D9DA" width="1.2" height="7.2"/>
	
		<rect x="162.7" y="33.9" transform="matrix(0.7071 -0.7071 0.7071 0.7071 21.2766 126.4369)" fill="#D1D9DA" width="1.2" height="7.2"/>
	
		<rect x="177.2" y="17" transform="matrix(0.7071 -0.7071 0.7071 0.7071 38.1776 133.4444)" fill="#3E3C4D" width="6" height="7.2"/>
	
		<rect x="177.1" y="19.6" transform="matrix(0.7071 -0.7071 0.7071 0.7071 35.6481 132.4492)" fill="#D1D9DA" width="1.2" height="7.2"/>
	
		<rect x="156.7" y="39.8" transform="matrix(0.7071 -0.7071 0.7071 0.7071 15.3772 123.9771)" fill="#D1D9DA" width="1.2" height="7.2"/>
	
		<rect x="151.7" y="44.9" transform="matrix(0.7071 -0.7071 0.7071 0.7071 10.2753 121.8905)" fill="#D1D9DA" width="1.2" height="7.2"/>
	
		<rect x="147.5" y="49.2" transform="matrix(0.7072 -0.707 0.707 0.7072 6.0371 120.1773)" fill="#D1D9DA" width="1.2" height="7.2"/>
	
		<rect x="144.1" y="52.5" transform="matrix(0.7071 -0.7071 0.7071 0.7071 2.6796 118.7293)" fill="#D1D9DA" width="1.2" height="7.2"/>
	
		<rect x="141.5" y="55.2" transform="matrix(0.7071 -0.7071 0.7071 0.7071 8.036800e-02 117.7053)" fill="#D1D9DA" width="1.2" height="7.2"/>
	<path fill="#D1D9DA" d="M109.2,92.8c-0.5,0.5-1.2,0.5-1.7,0l-0.8-0.8c-0.5-0.5-0.5-1.2,0-1.7l0.8-0.8c0.5-0.5,1.2-0.5,1.7,0
		l0.8,0.8c0.5,0.5,0.5,1.2,0,1.7L109.2,92.8z"/>
	<path fill="#E2001A" d="M138.3,57.4c-1.8,1.8-3.6,0.9-4.7-0.2c-2.8-2.8-0.7-6.8,1-8.6c1.9-2.2,4.2-4,6.2-4.8
		c0.5-0.2,0.8-0.6,0.7-1.1c-0.1-0.5-0.6-0.7-1.1-0.7c-3.4,0.1-8,1.3-11.1,4.3c-2.3,2.3-3.9,5-4.9,7.7c-0.2,0.6-0.4,1.2-0.5,1.9
		c-0.4,1.4-1,2.4-1.9,3.4c-3.1,3.1-6.5,2.5-8.1,2.6c-3.6,0-7.2,1.4-9.9,4.1c-5.6,5.6-5,14.2,0,20.3c2.5,3,6.4,7,9.3,9.3
		c11.4,8.9,18.7,0.8,20.5-4.5c1-2.9,0-6.2,4.5-10.7s12.9-6.9,13.4-7.1c1.2-0.7,2-2,1.5-3.3s-2-2-3.3-1.5c-2.5,0.9-5.2,2.9-7.6,1.3
		c-1.5-1-2.3-3.4-1.2-4.8c0.8-1,2.3-2.5,2.3-2.5L138.3,57.4z"/>
	<path fill="#3E3C4D" d="M138.3,70.1c-0.2,0.2-0.6,0.2-0.8,0l-6.8-6.8c-0.2-0.2-0.2-0.6,0-0.8l0,0c0.2-0.2,0.6-0.2,0.8,0l6.8,6.8
		C138.6,69.5,138.6,69.8,138.3,70.1L138.3,70.1z"/>
	<path fill="#D1D9DA" d="M133.7,74.7c-0.5,0.5-1.2,0.5-1.7,0l-5.9-5.9c-0.5-0.5-0.5-1.2,0-1.7l2.5-2.5c0.5-0.5,1.2-0.5,1.7,0
		l5.9,5.9c0.5,0.5,0.5,1.2,0,1.7L133.7,74.7z"/>
	<path fill="#3E3C4D" d="M126.9,81.5c-0.5,0.5-1.2,0.5-1.7,0l-5.9-5.9c-0.5-0.5-0.5-1.2,0-1.7l0,0c0.5-0.5,1.2-0.5,1.7,0l5.9,5.9
		C127.4,80.3,127.4,81,126.9,81.5L126.9,81.5z"/>
	<circle fill="#3E3C4D" cx="126.9" cy="88.2" r="1.8"/>
	<circle fill="#3E3C4D" cx="123.7" cy="92.8" r="1.8"/>
	<circle fill="#3E3C4D" cx="118.3" cy="91" r="1.8"/>
	<circle fill="#3E3C4D" cx="106.1" cy="73.8" r="2.4"/>
	<circle fill="#D1D9DA" cx="106.1" cy="73.8" r="1.2"/>
	
		<rect x="194.4" y="5.4" transform="matrix(0.9212 -0.3891 0.3891 0.9212 12.7814 76.3946)" fill="#C9C8CD" width="1.2" height="2.4"/>
	
		<rect x="191.9" y="6.5" transform="matrix(0.9214 -0.3887 0.3887 0.9214 12.1601 75.4148)" fill="#C9C8CD" width="1.2" height="2.4"/>
	
		<rect x="189.5" y="7.5" transform="matrix(0.9214 -0.3887 0.3887 0.9214 11.5583 74.5713)" fill="#C9C8CD" width="1.2" height="2.4"/>
	<rect x="187" y="8.5" transform="matrix(0.9212 -0.3891 0.3891 0.9212 10.9945 73.751)" fill="#C9C8CD" width="1.2" height="2.4"/>
	
		<rect x="184.5" y="9.6" transform="matrix(0.9211 -0.3893 0.3893 0.9211 10.3832 72.9129)" fill="#C9C8CD" width="1.2" height="2.4"/>
	
		<rect x="182" y="10.6" transform="matrix(0.9215 -0.3883 0.3883 0.9215 9.7278 71.8244)" fill="#C9C8CD" width="1.2" height="2.4"/>
	<path fill="#E2001A" d="M195.8,6.6c1.3-0.5,2.4-0.9,3.4,0c0.9,0.9,1.2,2.7,0.2,3.6c-0.6,0.6-1.5,0.6-2.3,0.6c-1,0-2.4,0.7-2.9,2.5
		s-1.7,5.2-3.9,6.2c-1.5,0.7-3.5-0.5-4.6,0.7l-0.8,0.8l-5.1-5.1c0,0,0.2-0.2,0.7-0.7c0.7-0.7,0.6-1.3,0.7-1.9
		c0.1-0.5,0.4-0.9,1.2-1.2L195.8,6.6z"/>
	<circle fill="#D1D9DA" cx="195.9" cy="8.8" r="1.2"/>
	<path fill="#3E3C4D" d="M194,5.7c-0.3,0.1-0.7,0-0.8-0.3l-0.4-1.1c-0.1-0.3,0-0.7,0.3-0.8l1.1-0.5c0.3-0.1,0.7,0,0.8,0.3l0.5,1.1
		c0.1,0.3,0,0.7-0.3,0.8L194,5.7z"/>
	<circle fill="#D1D9DA" cx="193.5" cy="9.8" r="1.2"/>
	<path fill="#3E3C4D" d="M191.5,6.7c-0.3,0.1-0.7,0-0.8-0.3l-0.4-1.1c-0.1-0.3,0-0.7,0.3-0.8l1.1-0.5c0.3-0.1,0.7,0,0.8,0.3l0.5,1.1
		c0.1,0.3,0,0.7-0.3,0.8L191.5,6.7z"/>
	<circle fill="#D1D9DA" cx="191" cy="10.9" r="1.2"/>
	<path fill="#3E3C4D" d="M189,7.8c-0.3,0.1-0.7,0-0.8-0.3l-0.5-1.1c-0.1-0.3,0-0.7,0.3-0.8l1.1-0.5c0.3-0.1,0.7,0,0.8,0.3l0.5,1.1
		c0.1,0.3,0,0.7-0.3,0.8L189,7.8z"/>
	<circle fill="#D1D9DA" cx="188.5" cy="11.9" r="1.2"/>
	<path fill="#3E3C4D" d="M186.6,8.8c-0.3,0.1-0.7,0-0.8-0.3l-0.5-1.1c-0.1-0.3,0-0.7,0.3-0.8l1.1-0.5c0.3-0.1,0.7,0,0.8,0.3l0.5,1.2
		c0.1,0.3,0,0.7-0.3,0.8L186.6,8.8z"/>
	<circle fill="#D1D9DA" cx="186" cy="13" r="1.2"/>
	<path fill="#3E3C4D" d="M184.1,9.9c-0.3,0.1-0.7,0-0.8-0.3l-0.5-1.1c-0.1-0.3,0-0.7,0.3-0.8l1.1-0.5c0.3-0.1,0.7,0,0.8,0.3l0.5,1.1
		c0.1,0.3,0,0.7-0.3,0.8L184.1,9.9z"/>
	<circle fill="#D1D9DA" cx="183.6" cy="14" r="1.2"/>
	<path fill="#3E3C4D" d="M181.6,10.9c-0.3,0.1-0.7,0-0.8-0.3l-0.5-1.1c-0.1-0.3,0-0.7,0.3-0.8l1.2-0.4c0.3-0.1,0.7,0,0.8,0.3
		l0.4,1.1c0.1,0.3,0,0.7-0.3,0.8L181.6,10.9z"/>
</g>
<g id="guitar-electric">
	<polygon fill="#D79038" points="266,39.2 260.9,34.1 266.9,28.1 271.9,33.2 	"/>
	<polygon fill="#D79038" points="272.8,32.4 267.7,27.2 274.5,20.4 279.5,25.5 	"/>
	<polygon fill="#D79038" points="260.1,45.2 255,40.1 260.1,34.9 265.2,40.1 	"/>
	<polygon fill="#D79038" points="255,50.4 250,45.2 254.2,40.9 259.3,46.1 	"/>
	<polygon fill="#D79038" points="250.8,54.6 245.8,49.5 249.1,46.1 254.2,51.2 	"/>
	<polygon fill="#D79038" points="247.4,58.1 242.4,52.9 244.9,50.4 250,55.5 	"/>
	<polygon fill="#D79038" points="244.9,60.6 239.9,55.5 241.5,53.8 246.6,58.9 	"/>
	<polygon fill="#D1D9DA" points="271.9,33.2 266.9,28.1 267.7,27.2 272.8,32.4 	"/>
	<polygon fill="#D1D9DA" points="265.2,40.1 260.1,34.9 261,34.1 266,39.2 	"/>
	<polygon fill="#D79038" points="280.3,24.6 275.3,19.5 281.2,13.5 286.3,18.7 	"/>
	<polygon fill="#743926" points="286.3,18.6 281.2,13.5 282.9,11.8 288,16.9 	"/>
	<polygon fill="#D1D9DA" points="279.5,25.5 274.4,20.4 275.3,19.5 280.4,24.6 	"/>
	<polygon fill="#D1D9DA" points="259.3,46.1 254.2,40.9 255,40.1 260.1,45.2 	"/>
	<polygon fill="#D1D9DA" points="254.2,51.2 249.1,46.1 250,45.2 255,50.4 	"/>
	<polygon fill="#D1D9DA" points="250,55.5 244.9,50.4 245.8,49.5 250.8,54.6 	"/>
	<polygon fill="#D1D9DA" points="246.6,58.9 241.5,53.8 242.4,52.9 247.4,58.1 	"/>
	<polygon fill="#D1D9DA" points="244.1,61.5 239,56.4 239.9,55.5 244.9,60.6 	"/>
	<path fill="#3E3C4D" d="M208.5,92.4c-0.5,0.5-1.2,0.5-1.7,0l-0.8-0.9c-0.5-0.5-0.5-1.2,0-1.7l0.8-0.8c0.5-0.5,1.2-0.5,1.7,0
		l0.8,0.9c0.5,0.5,0.5,1.2,0,1.7L208.5,92.4z"/>
	<path fill="#21223C" d="M233.5,57c-2.5-2.6-1.8-5.2-0.6-8.7c0.4-1.4-0.2-2.9-1.5-3.3c-1.3-0.5-2.6,0.2-3.6,1.2
		c-1.1,1.1-2.5,3.8-3.4,7.6c-0.5,2-1.9,4.4-2.9,5.3c-3.4,2.8-6,2.5-7.7,2.6c-3.7,0.1-7.2,1.5-9.9,4.3c-5.6,5.7-5,14.3,0,20.6
		c0.9,1.1,2,2.4,3.3,3.7c0-3.6,1-6.6,3.6-6.1c12.7,0.9,20.2,0,28.7-10.3c1.5-1.5,3.5-0.1,5.4,2.1c3.4-1.7,4.8-2,5.6-2.3
		c1.3-0.6,2-2,1.5-3.3c-0.5-1.4-2-2-3.3-1.6c-2.5,0.9-4,2.6-6.5,0.9c-1.5-1-2.3-3.4-1.2-4.9c0.8-1,2.3-2.5,2.3-2.5l-5.1-5.1
		C236.4,59,234.6,58.1,233.5,57z"/>
	<path fill="#3E3C4D" d="M238.2,80.6c1.8-1.9,4.3-3.4,6.7-4.5c-1.9-2.2-4-3.6-5.4-2.1c-8.4,10.3-16,11.1-28.7,10.3
		c-2.6-0.5-3.6,2.5-3.6,6.1c2,2.1,4.2,4.2,6,5.6c11.4,9.1,18.6,0.8,20.5-4.6C234.6,88.4,233.7,85.1,238.2,80.6z M235.6,72.6
		c-0.2,0.2-0.6,0.2-0.8,0l-6.7-6.9c-0.2-0.2-0.2-0.6,0-0.9l0,0c0.2-0.2,0.6-0.2,0.8,0l6.7,6.9C235.9,72,235.9,72.4,235.6,72.6
		L235.6,72.6z"/>
	<path fill="#D1D9DA" d="M231,77.3c-0.5,0.5-1.2,0.5-1.7,0l-5.9-6c-0.5-0.5-0.5-1.2,0-1.7l2.5-2.6c0.5-0.5,1.2-0.5,1.7,0l5.9,6
		c0.5,0.5,0.5,1.2,0,1.7L231,77.3z"/>
	<path fill="#3E3C4D" d="M226.8,81.6c-0.5,0.5-1.2,0.5-1.7,0l-5.9-6c-0.5-0.5-0.5-1.2,0-1.7l0,0c0.5-0.5,1.2-0.5,1.7,0l5.9,6
		C227.2,80.4,227.2,81.2,226.8,81.6L226.8,81.6z"/>
	<ellipse fill="#D1D9DA" cx="226.2" cy="89.7" rx="1.8" ry="1.8"/>
	<ellipse fill="#D1D9DA" cx="222.5" cy="93.5" rx="1.8" ry="1.8"/>
	<ellipse fill="#D1D9DA" cx="212.3" cy="89.4" rx="2.4" ry="2.4"/>
	<ellipse fill="#534E62" cx="212.3" cy="89.4" rx="1.2" ry="1.2"/>
	<polygon fill="#C9C8CD" points="294.7,5 293.7,2.8 294.8,2.3 295.8,4.5 	"/>
	<polygon fill="#C9C8CD" points="291.7,6.3 290.7,4.1 291.8,3.6 292.8,5.8 	"/>
	<polygon fill="#C9C8CD" points="288.6,7.6 287.7,5.4 288.8,4.9 289.7,7.1 	"/>
	<polygon fill="#C9C8CD" points="285.6,8.9 284.7,6.7 285.8,6.2 286.7,8.4 	"/>
	<path fill="#743926" d="M290.5,16.1c-1.7,1.7-2.5,0.9-2.5,0.9l-5.1-5.2c-0.9-0.9,0-2.7,1.3-3.2l11-4.8c2.7-0.9,4.1,0.3,4.1,0.3
		c1.3,1.3,0.7,2.4-0.3,3.4L290.5,16.1z"/>
	<path fill="#D1D9DA" d="M296.3,7.4c-0.6,0.3-1.3,0-1.6-0.6c-0.3-0.6,0-1.3,0.6-1.6c0.6-0.3,1.3,0,1.6,0.6S296.9,7.1,296.3,7.4z"/>
	<path fill="#3E3C4D" d="M293.7,2.8c-0.3,0.1-0.7,0-0.8-0.3l-0.5-1.1c-0.1-0.3,0-0.7,0.3-0.8l1.2-0.6c0.3-0.1,0.7,0,0.8,0.3l0.5,1.1
		c0.1,0.3,0,0.7-0.3,0.8L293.7,2.8z"/>
	<ellipse fill="#D1D9DA" cx="292.8" cy="7.6" rx="1.2" ry="1.2"/>
	<path fill="#3E3C4D" d="M290.7,4.1c-0.3,0.1-0.7,0-0.8-0.3l-0.5-1.1c-0.1-0.3,0-0.7,0.3-0.8l1.2-0.5c0.3-0.1,0.7,0,0.8,0.3l0.5,1.1
		c0.1,0.3,0,0.7-0.3,0.8L290.7,4.1z"/>
	<ellipse fill="#D1D9DA" cx="289.8" cy="8.9" rx="1.2" ry="1.2"/>
	<path fill="#3E3C4D" d="M287.7,5.4c-0.3,0.1-0.7,0-0.8-0.3L286.4,4c-0.1-0.3,0-0.7,0.3-0.8l1.2-0.5c0.3-0.1,0.7,0,0.8,0.3l0.5,1.1
		c0.1,0.3,0,0.7-0.3,0.8L287.7,5.4z"/>
	<ellipse fill="#D1D9DA" cx="286.8" cy="10.2" rx="1.2" ry="1.2"/>
	<path fill="#3E3C4D" d="M284.7,6.7c-0.3,0.1-0.7,0-0.8-0.3l-0.5-1.1c-0.1-0.3,0-0.7,0.3-0.8l1.1-0.5c0.3-0.1,0.7,0,0.8,0.3l0.5,1.1
		c0.1,0.3,0,0.7-0.3,0.8L284.7,6.7z"/>
	<polygon fill="#D79038" points="236.5,69.2 231.4,64.1 239,56.4 244.1,61.5 	"/>
</g>
<g id="keyboard">
	<path fill="#EC7531" d="M399.2,22.8c1.1,1.1,1.1,2.8,0,3.8l-72.6,72.6c-1.1,1.1-2.8,1.1-3.8,0l-22-22c-1.1-1.1-1.1-2.8,0-3.8
		l72.6-72.6c1.1-1.1,2.8-1.1,3.8,0L399.2,22.8z"/>
	
		<rect x="304.4" y="48.3" transform="matrix(0.7071 -0.7071 0.7071 0.7071 64.79 267.8792)" fill="#EFEFEF" width="102.6" height="14.9"/>
	
		<rect x="318.1" y="83.5" transform="matrix(0.7069 -0.7073 0.7073 0.7069 31.2492 251.8192)" fill="#21223C" width="2.7" height="9.5"/>
	
		<rect x="321.9" y="79.7" transform="matrix(0.7071 -0.7071 0.7071 0.7071 35.0005 253.3299)" fill="#21223C" width="2.7" height="9.5"/>
	
		<rect x="324.8" y="76.8" transform="matrix(0.7071 -0.7071 0.7071 0.7071 37.8995 254.5034)" fill="#21223C" width="2.7" height="9.5"/>
	
		<rect x="328.6" y="73" transform="matrix(0.7068 -0.7074 0.7074 0.7068 41.7691 256.2162)" fill="#21223C" width="2.7" height="9.5"/>
	
		<rect x="331.5" y="70.1" transform="matrix(0.7071 -0.7071 0.7071 0.7071 44.5959 257.2677)" fill="#21223C" width="2.7" height="9.5"/>
	
		<rect x="334.3" y="67.2" transform="matrix(0.7069 -0.7073 0.7073 0.7069 47.477 258.4935)" fill="#21223C" width="2.7" height="9.5"/>
	
		<rect x="338.1" y="63.4" transform="matrix(0.7073 -0.7069 0.7069 0.7073 51.17 259.9224)" fill="#21223C" width="2.7" height="9.5"/>
	
		<rect x="341.1" y="60.6" transform="matrix(0.7075 -0.7068 0.7068 0.7075 53.9981 261.1086)" fill="#21223C" width="2.7" height="9.5"/>
	
		<rect x="344.8" y="56.7" transform="matrix(0.7073 -0.7069 0.7069 0.7073 57.8636 262.6862)" fill="#21223C" width="2.7" height="9.5"/>
	
		<rect x="347.7" y="53.9" transform="matrix(0.7072 -0.707 0.707 0.7072 60.7595 263.9707)" fill="#21223C" width="2.7" height="9.5"/>
	
		<rect x="350.6" y="51" transform="matrix(0.707 -0.7072 0.7072 0.707 63.7164 265.2235)" fill="#21223C" width="2.7" height="9.5"/>
	
		<rect x="354.4" y="47.2" transform="matrix(0.7071 -0.7071 0.7071 0.7071 67.4843 266.7754)" fill="#21223C" width="2.7" height="9.5"/>
	
		<rect x="357.2" y="44.3" transform="matrix(0.7072 -0.707 0.707 0.7072 70.2831 267.8784)" fill="#21223C" width="2.7" height="9.5"/>
	
		<rect x="361.1" y="40.5" transform="matrix(0.7073 -0.7069 0.7069 0.7073 74.1181 269.4581)" fill="#21223C" width="2.7" height="9.5"/>
	
		<rect x="363.9" y="37.6" transform="matrix(0.7071 -0.7071 0.7071 0.7071 77.0094 270.6827)" fill="#21223C" width="2.7" height="9.5"/>
	
		<rect x="366.8" y="34.8" transform="matrix(0.7074 -0.7068 0.7068 0.7074 79.7803 271.8047)" fill="#21223C" width="2.7" height="9.5"/>
	
		<rect x="370.6" y="30.9" transform="matrix(0.7071 -0.7071 0.7071 0.7071 83.7063 273.4482)" fill="#21223C" width="2.7" height="9.5"/>
	
		<rect x="373.5" y="28.1" transform="matrix(0.7072 -0.707 0.707 0.7072 86.5424 274.6505)" fill="#21223C" width="2.7" height="9.5"/>
	
		<rect x="377.3" y="24.3" transform="matrix(0.7073 -0.7069 0.7069 0.7073 90.3032 276.2004)" fill="#21223C" width="2.7" height="9.5"/>
	
		<rect x="380.2" y="21.4" transform="matrix(0.7072 -0.707 0.707 0.7072 93.2376 277.4143)" fill="#21223C" width="2.7" height="9.5"/>
	
		<rect x="383" y="18.5" transform="matrix(0.7068 -0.7074 0.7074 0.7068 96.213 278.7191)" fill="#21223C" width="2.7" height="9.5"/>
	
		<rect x="386.9" y="14.7" transform="matrix(0.7073 -0.7069 0.7069 0.7073 99.8949 280.1371)" fill="#21223C" width="2.7" height="9.5"/>
	<path fill="#21223C" d="M351,45.2c0.3,0.3,0.3,0.7,0,1l0,0c-0.3,0.3-0.7,0.3-1,0l-8.6-8.6c-0.3-0.3-0.3-0.7,0-1l0,0
		c0.3-0.3,0.7-0.3,1,0L351,45.2z M355.7,40.4c0.3,0.3,0.3,0.7,0,1l0,0c-0.3,0.3-0.7,0.3-1,0l-8.6-8.6c-0.3-0.3-0.3-0.7,0-1l0,0
		c0.3-0.3,0.7-0.3,1,0L355.7,40.4z M360.5,35.7c0.3,0.3,0.3,0.7,0,1l0,0c-0.3,0.3-0.7,0.3-1,0L351,28c-0.3-0.3-0.3-0.7,0-1l0,0
		c0.3-0.3,0.7-0.3,1,0L360.5,35.7z M365.3,30.9c0.3,0.3,0.3,0.7,0,1l0,0c-0.3,0.3-0.7,0.3-1,0l-8.6-8.6c-0.3-0.3-0.3-0.7,0-1l0,0
		c0.3-0.3,0.7-0.3,1,0L365.3,30.9z"/>
	<path fill="#E2001A" d="M346.7,39c0.5,0.5,0.5,1.4,0,1.9l-1,1c-0.5,0.5-1.4,0.5-1.9,0l0,0c-0.5-0.5-0.5-1.4,0-1.9l1-1
		C345.3,38.5,346.1,38.5,346.7,39L346.7,39z M353.3,36.1c0.5,0.5,0.5,1.4,0,1.9l-1,1c-0.5,0.5-1.4,0.5-1.9,0l0,0
		c-0.5-0.5-0.5-1.4,0-1.9l1-1C352,35.6,352.8,35.6,353.3,36.1L353.3,36.1z M356.2,29.5c0.5,0.5,0.5,1.4,0,1.9l-1,1
		c-0.5,0.5-1.4,0.5-1.9,0l0,0c-0.5-0.5-0.5-1.4,0-1.9l1-1C354.8,28.9,355.7,28.9,356.2,29.5L356.2,29.5z M360,23.7
		c0.5,0.5,0.5,1.4,0,1.9l-1,1c-0.5,0.5-1.4,0.5-1.9,0l0,0c-0.5-0.5-0.5-1.4,0-1.9l1-1C358.6,23.2,359.5,23.2,360,23.7L360,23.7z"/>
	<path fill="#C9C8CD" d="M367.2,22.3c1.1-1.1,2.8-1.1,3.8,0c1.1,1.1,1.1,2.8,0,3.8l0,0L367.2,22.3z"/>
	<path fill="#D1D9DA" d="M371,26.1c-1.1,1.1-2.8,1.1-3.8,0c-1.1-1.1-1.1-2.8,0-3.8L371,26.1z"/>
	<path fill="#C9C8CD" d="M372.9,16.6c1.1-1.1,2.8-1.1,3.8,0c1.1,1.1,1.1,2.8,0,3.8l0,0L372.9,16.6z"/>
	<path fill="#D1D9DA" d="M376.8,20.4c-1.1,1.1-2.8,1.1-3.8,0c-1.1-1.1-1.1-2.8,0-3.8L376.8,20.4z"/>
	<path fill="#C9C8CD" d="M378.7,10.8c1.1-1.1,2.8-1.1,3.8,0c1.1,1.1,1.1,2.8,0,3.8l0,0L378.7,10.8z"/>
	<path fill="#D1D9DA" d="M382.5,14.6c-1.1,1.1-2.8,1.1-3.8,0c-1.1-1.1-1.1-2.8,0-3.8L382.5,14.6z"/>
	<circle fill="#EFEFEF" cx="369.1" cy="24.2" r="1.4"/>
	<circle fill="#EFEFEF" cx="374.8" cy="18.5" r="1.4"/>
	<circle fill="#EFEFEF" cx="380.6" cy="12.7" r="1.4"/>
	<path fill="#C9C8CD" d="M361.5,16.6c1.1-1.1,2.8-1.1,3.8,0c1.1,1.1,1.1,2.8,0,3.8l0,0L361.5,16.6z"/>
	<path fill="#D1D9DA" d="M365.3,20.4c-1.1,1.1-2.8,1.1-3.8,0c-1.1-1.1-1.1-2.8,0-3.8L365.3,20.4z"/>
	<path fill="#C9C8CD" d="M367.2,10.8c1.1-1.1,2.8-1.1,3.8,0c1.1,1.1,1.1,2.8,0,3.8l0,0L367.2,10.8z"/>
	<path fill="#D1D9DA" d="M371,14.6c-1.1,1.1-2.8,1.1-3.8,0c-1.1-1.1-1.1-2.8,0-3.8L371,14.6z"/>
	<path fill="#C9C8CD" d="M372.9,5.1c1.1-1.1,2.8-1.1,3.9,0c1.1,1.1,1.1,2.8,0,3.8l0,0L372.9,5.1z"/>
	<path fill="#D1D9DA" d="M376.8,8.9c-1.1,1.1-2.8,1.1-3.8,0c-1.1-1.1-1.1-2.8,0-3.8L376.8,8.9z"/>
	<circle fill="#EFEFEF" cx="363.4" cy="18.5" r="1.4"/>
	<circle fill="#EFEFEF" cx="369.1" cy="12.7" r="1.4"/>
	<circle fill="#EFEFEF" cx="374.8" cy="7" r="1.4"/>
	<path fill="#E2001A" d="M342.4,49c-0.5-0.5-1.4-0.5-1.9,0l-1,1c-0.5,0.5-0.5,1.4,0,1.9l1,1l2.9-2.9L342.4,49z"/>
	<path fill="#BD1220" d="M340.4,52.9l1,1c0.5,0.5,1.4,0.5,1.9,0l1-1c0.5-0.5,0.5-1.4,0-1.9l-1-1L340.4,52.9z"/>
	<path fill="#E2001A" d="M337.6,53.8c-0.5-0.5-1.4-0.5-1.9,0l-1,1c-0.5,0.5-0.5,1.4,0,1.9l1,1l2.9-2.9L337.6,53.8z"/>
	<path fill="#BD1220" d="M335.7,57.6l1,1c0.5,0.5,1.4,0.5,1.9,0l1-1c0.5-0.5,0.5-1.4,0-1.9l-1-1L335.7,57.6z"/>
	<path fill="#96A939" d="M331.8,63.4c0.5,0.5,1.4,0.5,1.9,0l1-1c0.5-0.5,0.5-1.4,0-1.9l-1-1l-2.9,2.9L331.8,63.4z"/>
	<path fill="#70791E" d="M333.8,59.6l-1-1c-0.5-0.5-1.4-0.5-1.9,0l-1,1c-0.5,0.5-0.5,1.4,0,1.9l1,1L333.8,59.6z"/>
	<path fill="#E2001A" d="M328,63.4c-0.5-0.5-1.4-0.5-1.9,0l-1,1c-0.5,0.5-0.5,1.4,0,1.9l1,1l2.9-2.9L328,63.4z"/>
	<path fill="#BD1220" d="M326.1,67.2l1,1c0.5,0.5,1.4,0.5,1.9,0l1-1c0.5-0.5,0.5-1.4,0-1.9l-1-1L326.1,67.2z"/>
	<path fill="#3E3C4D" d="M314.2,65.8c0.3,0.3,0.3,0.7,0,1l-9.6,9.6c-0.3,0.3-0.7,0.3-1,0l0,0c-0.3-0.3-0.3-0.7,0-1l9.6-9.6
		C313.5,65.5,313.9,65.5,314.2,65.8L314.2,65.8z M316.1,67.7c0.3,0.3,0.3,0.7,0,1l-9.6,9.6c-0.3,0.3-0.7,0.3-1,0l0,0
		c-0.3-0.3-0.3-0.7,0-1l9.6-9.6C315.4,67.4,315.8,67.4,316.1,67.7L316.1,67.7z M318,69.6c0.3,0.3,0.3,0.7,0,1l-9.6,9.6
		c-0.3,0.3-0.7,0.3-1,0l0,0c-0.3-0.3-0.3-0.7,0-1l9.6-9.6C317.3,69.3,317.7,69.3,318,69.6L318,69.6z M319.9,71.5
		c0.3,0.3,0.3,0.7,0,1l-9.6,9.5c-0.3,0.3-0.7,0.3-1,0l0,0c-0.3-0.3-0.3-0.7,0-1l9.6-9.6C319.2,71.2,319.6,71.2,319.9,71.5
		L319.9,71.5z M321.8,73.4c0.3,0.3,0.3,0.7,0,1l-9.6,9.6c-0.3,0.3-0.7,0.3-1,0l0,0c-0.3-0.3-0.3-0.7,0-1l9.6-9.6
		C321.1,73.1,321.5,73.1,321.8,73.4L321.8,73.4z"/>
</g>
</svg>
