<?xml version="1.0" encoding="utf-8"?>
<!-- Generator: Adobe Illustrator 24.0.1, SVG Export Plug-In . SVG Version: 6.00 Build 0)  -->
<svg version="1.1" id="Layer_1" xmlns="http://www.w3.org/2000/svg" xmlns:xlink="http://www.w3.org/1999/xlink" x="0px" y="0px"
	 viewBox="0 0 100 100" style="enable-background:new 0 0 100 100;" xml:space="preserve">
<style type="text/css">
	.st0{fill:#FFFFFF;}
	.st1{fill:#ECEBED;}
</style>
<path class="st0" d="M79.7,42.1v-7.4C79.7,18.3,66.4,5,50,5C33.6,5,20.3,18.3,20.3,34.7v7.4c-0.2,4.6-2.3,8.9-5.7,11.8
	c-3.1,2.6-5,6.4-5.4,10.4c0,9.3,15.3,14.8,40.8,14.8c25.5,0,40.8-5.6,40.8-14.8c-0.4-4-2.3-7.8-5.4-10.4
	C81.9,51,79.9,46.7,79.7,42.1z"/>
<path class="st1" d="M36.1,84.8C38,90.9,43.6,95,50,95s12-4.1,13.9-10.2c-4.4,0.3-9,0.5-13.9,0.5S40.4,85.1,36.1,84.8z"/>
</svg>
