<svg width="136" height="111" viewBox="0 0 136 111" fill="none" xmlns="http://www.w3.org/2000/svg">
<g clip-path="url(#clip0)">
<path d="M0 20.6832L12.8282 14.3902V41.5572L28.6169 34.12V6.29298L41.5482 0V42.1439L0 62.9298V20.6832Z" fill="white"/>
<path d="M75.6292 27.5483L60.1204 19.5391V48.6276L47.2922 42.1439V0L88.6489 20.8739V62.9298L75.6292 56.1528V27.5483Z" fill="white"/>
<path d="M135.941 12.9674L122.244 19.9204V34.4134L135.838 27.5483V42.1439L94.3929 62.9298V48.3489L109.416 40.809V26.4041L94.4813 33.944V20.8739L135.941 0V12.9674Z" fill="white"/>
<path d="M0.0589142 95.3629V68.9588L41.6071 47.8941V61.0522L12.8872 75.4424V78.3029L41.6071 64.6754V90.2141L0.0589142 111V98.7074L28.6758 83.7304V80.6793L0.0589142 95.3629Z" fill="white"/>
<path d="M47.3511 48.0702L88.8993 68.7534V110.985L47.3511 90.2141V48.0702ZM75.9827 89.642V75.6185L60.1793 67.6239V82.2195L75.9827 89.642Z" fill="white"/>
<path d="M107.663 104.238L94.6433 111.015V68.9588L136 48.0848V90.2141L123.172 96.6978V67.6239L107.663 75.6331V104.238Z" fill="white"/>
</g>
<defs>
<clipPath id="clip0">
<rect width="136" height="111" fill="white"/>
</clipPath>
</defs>
</svg>
