<?xml version="1.0" encoding="utf-8"?>
<!-- Generator: Adobe Illustrator 24.0.1, SVG Export Plug-In . SVG Version: 6.00 Build 0)  -->
<svg version="1.1" id="Layer_1" xmlns="http://www.w3.org/2000/svg" xmlns:xlink="http://www.w3.org/1999/xlink" x="0px" y="0px"
	 viewBox="0 0 100 100" style="enable-background:new 0 0 100 100;" xml:space="preserve">
<style type="text/css">
	.st0{fill:#595959;}
	.st1{fill:#464646;}
	.st2{fill:#A66856;}
	.st3{fill:#8F5040;}
	.st4{fill:#FFDEA9;}
	.st5{fill:#FFBF7B;}
	.st6{fill:#FFCE55;}
	.st7{fill:#FFBC38;}
</style>
<path class="st0" d="M98.5,83H1.5v5.9h97.1V83z"/>
<path class="st1" d="M98.5,83h-5.9v5.9h5.9V83z"/>
<path class="st2" d="M40,30.7H15v16.8h25V30.7z"/>
<path class="st3" d="M40,30.7h-5.9v16.8H40V30.7z"/>
<path class="st4" d="M41.2,26H13.9v4.7h27.3V26z"/>
<path class="st2" d="M85,30.7H60v16.8h25V30.7z"/>
<path class="st3" d="M85,30.7h-5.9v16.8H85V30.7z"/>
<path class="st4" d="M86.1,26H58.8v4.7h27.3V26z"/>
<path class="st5" d="M41.2,26h-5.9v4.7h5.9V26z"/>
<path class="st5" d="M86.1,26h-5.9v4.7h5.9V26z"/>
<path class="st6" d="M27.5,18H7.2c0,0,1.6-4.7,10.4-4.7S27.5,18,27.5,18z"/>
<path class="st6" d="M92.6,18H72.3c0,0,1.6-4.7,10.4-4.7C91.4,13.3,92.6,18,92.6,18z"/>
<path class="st7" d="M82.6,13.3c-1.1,0-2.1,0.1-2.9,0.2c6.1,0.9,7,4.5,7,4.5h5.9C92.6,18,91.4,13.3,82.6,13.3z"/>
<path class="st7" d="M17.6,13.3c-1.1,0-2.1,0.1-2.9,0.2c6.1,0.9,7,4.5,7,4.5h5.9C27.5,18,26.4,13.3,17.6,13.3z"/>
<path class="st4" d="M50,79.9c13.1,0,23.6-10.6,23.6-23.6S63.1,32.6,50,32.6S26.4,43.2,26.4,56.3S36.9,79.9,50,79.9z"/>
<path class="st0" d="M50,74.8c-10.2,0-18.6-8.3-18.6-18.6S39.8,37.7,50,37.7S68.6,46,68.6,56.3S60.2,74.8,50,74.8z"/>
<path d="M98.5,81.6h-9l-5.7-6.9V48.9H85c0.8,0,1.5-0.7,1.5-1.5v-3.9c0-0.8-0.7-1.5-1.5-1.5c-0.8,0-1.5,0.7-1.5,1.5V46H72.9
	c-2.3-5.2-6.4-9.5-11.5-12.1v-1.8h22.1v5.2c0,0.8,0.7,1.5,1.5,1.5c0.8,0,1.5-0.7,1.5-1.5v-5.2c0.7-0.1,1.2-0.7,1.2-1.4V26
	c0-0.8-0.7-1.5-1.5-1.5h-2.2v-5.1h8.7c0.5,0,0.9-0.2,1.2-0.6c0.3-0.4,0.4-0.8,0.3-1.3c-0.1-0.2-1.4-5.3-10.1-5.8v-1.1
	c0-0.8-0.7-1.5-1.5-1.5S81,9.9,81,10.8v1.1c-8.3,0.6-10,5.4-10.1,5.6c-0.1,0.4-0.1,0.9,0.2,1.3c0.3,0.4,0.7,0.6,1.2,0.6H81v5.1H58.8
	c-0.8,0-1.5,0.7-1.5,1.5v4.7c0,0.7,0.5,1.3,1.2,1.4v0.5c-2.7-1-5.5-1.5-8.5-1.5s-5.8,0.5-8.5,1.5v-0.5c0.7-0.1,1.2-0.7,1.2-1.4V26
	c0-0.8-0.7-1.5-1.5-1.5h-9.9c-0.8,0-1.5,0.7-1.5,1.5c0,0.8,0.7,1.5,1.5,1.5h8.4v1.8H15.3v-1.8H25c0.8,0,1.5-0.7,1.5-1.5
	c0-0.8-0.7-1.5-1.5-1.5h-6v-5.1h8.5c0.5,0,0.9-0.2,1.2-0.6c0.3-0.4,0.4-0.8,0.3-1.3c-0.1-0.2-1.4-5.2-9.9-5.8v-1.1
	c0-0.8-0.7-1.5-1.5-1.5c-0.8,0-1.5,0.7-1.5,1.5v1.1c-8.5,0.5-10.2,5.4-10.3,5.6C5.7,18,5.8,18.5,6,18.8c0.3,0.4,0.7,0.6,1.2,0.6h8.9
	v5.1h-2.2c-0.8,0-1.5,0.7-1.5,1.5v4.7c0,0.7,0.5,1.3,1.2,1.4v15.4c0,0.8,0.7,1.5,1.5,1.5h1.1v25.7l-5.7,6.9h-9C0.7,81.6,0,82.2,0,83
	v5.9c0,0.8,0.7,1.5,1.5,1.5h97.1c0.8,0,1.5-0.7,1.5-1.5V83C100,82.2,99.3,81.6,98.5,81.6z M82.6,14.8c3.7,0,5.8,0.9,7,1.8H75.4
	C76.7,15.6,79,14.8,82.6,14.8z M60.3,27.5h24.4v1.8H60.3V27.5z M17.6,14.8c3.7,0,5.8,0.9,7,1.8H10.4C11.7,15.6,13.9,14.8,17.6,14.8z
	 M85.8,81.6h-1.9v-2.3L85.8,81.6z M79.1,81.6l1.9-2.3v2.3H79.1z M81,48.9v25.7l-5.7,6.9h-6.7l-3.4-5.3c6-4.6,9.9-11.8,9.9-20
	c0-2.5-0.4-5-1.1-7.3H81z M50,81.4c4.6,0,9-1.3,12.7-3.5l2.4,3.7H34.9l2.4-3.7C41,80.1,45.4,81.4,50,81.4z M72.2,56.3
	c0,12.2-9.9,22.2-22.2,22.2s-22.2-9.9-22.2-22.2S37.8,34.1,50,34.1S72.2,44,72.2,56.3z M38.6,32.1v1.8c-5.1,2.6-9.1,6.9-11.5,12.1
	H16.5V32.1H38.6z M26,48.9c-0.7,2.3-1.1,4.8-1.1,7.3c0,8.1,3.9,15.4,9.9,20l-3.4,5.3h-6.7L19,74.6V48.9H26z M19,79.3l1.9,2.3H19
	V79.3z M16.1,79.3v2.3h-1.9L16.1,79.3z M97.1,87.4H2.9v-2.9c0,0,0,0,0,0s0,0,0,0h94.1c0,0-29.3,0-29.3,0c0,0,0,0,0,0h29.3V87.4z"/>
<path d="M30,56.7c0,0.8,0.7,1.5,1.5,1.4c0.8,0,1.4-0.7,1.4-1.5c0-0.1,0-0.3,0-0.4c0-9.4,7.7-17.1,17.1-17.1
	c9.4,0,17.1,7.7,17.1,17.1S59.4,73.3,50,73.3c-7.1,0-13.5-4.4-16-11.1c-0.3-0.8-1.1-1.1-1.9-0.9c-0.8,0.3-1.1,1.1-0.9,1.9
	c2.9,7.8,10.5,13,18.7,13c11,0,20-9,20-20s-9-20-20-20s-20,9-20,20C30,56.4,30,56.6,30,56.7z"/>
</svg>
