<?xml version="1.0" encoding="utf-8"?>
<!-- Generator: Adobe Illustrator 24.0.1, SVG Export Plug-In . SVG Version: 6.00 Build 0)  -->
<svg version="1.1" id="Layer_1" xmlns="http://www.w3.org/2000/svg" xmlns:xlink="http://www.w3.org/1999/xlink" x="0px" y="0px"
	 viewBox="0 0 100 100" style="enable-background:new 0 0 100 100;" xml:space="preserve">
<style type="text/css">
	.st0{fill:#FF803C;}
	.st1{fill:#F76328;}
	.st2{fill:#595959;}
	.st3{fill:#464646;}
	.st4{fill:#FFDEA9;}
</style>
<path class="st0" d="M28,46.5C20.3,54.2,14.3,50,7,57.3c-8.6,8.5-6.8,23.4,2.8,33c9.9,9.9,24.7,11.1,33.1,2.8
	c7.3-7.3,3.1-13.1,10.8-20.9c1.4-1.4,10.4-4.6,15.1-10.8c11.5-15.2-27.4,7.2-10.8-19C39.2,23.5,31,43.5,28,46.5z"/>
<path class="st1" d="M64.1,55.8c1.5,0.5,1.5,2-1.1,5.6c-4.7,6.2-11.8,6-13.2,7.4C42.1,76.5,44.3,85.7,37,93c-3,3-6.9,4.8-11.1,5.3
	c6.3,0.8,12.6-0.9,17-5.3c7.3-7.3,3.1-13.1,10.8-20.9c1.4-1.4,10.4-4.6,15.1-10.8C73.8,54.8,69.4,55.2,64.1,55.8z"/>
<path class="st2" d="M46.8,66.9L33,53.2l5.2-5.1L52,61.8L46.8,66.9z"/>
<path class="st3" d="M46.8,66.9l-4.2-4.1l5.2-5.1l4.2,4.1L46.8,66.9z"/>
<path class="st2" d="M36,77.7L22.3,64l5.2-5.1l13.8,13.7L36,77.7z"/>
<path class="st3" d="M36,77.7l-4.1-4.1l5.2-5.1l4.1,4.1L36,77.7z"/>
<path class="st4" d="M30.9,93.2c1.8,0,3.3-1.5,3.3-3.3c0-1.8-1.5-3.3-3.3-3.3c-1.8,0-3.3,1.5-3.3,3.3C27.6,91.8,29.1,93.2,30.9,93.2
	z"/>
<path class="st2" d="M24.5,84.6l-9.1-9.1l3.6-3.6l9.1,9.1L24.5,84.6z"/>
<path class="st4" d="M48,57.9L42.2,52l37.7-37.6l5.8,5.8L48,57.9z"/>
<path class="st2" d="M98.2,8.6l-8.8,10.7L84,23.5l-4.1-4.1L76.5,16l4.3-5.4l10.6-8.8c0.4-0.4,1-0.5,1.3-0.2l1.5,1.5l4.1,4.1
	C98.6,7.6,98.6,8.1,98.2,8.6z"/>
<path class="st3" d="M98.2,8.6l-8.8,10.7L84,23.5l-4.1-4.1l0,0l5.5-4.3l8.8-10.7c0.4-0.4,0.4-1,0.2-1.3l4.1,4.1
	C98.6,7.6,98.6,8.1,98.2,8.6z"/>
<path d="M39.2,94.1c-3.9,2.5-8.8,3.5-14,2.6c-5.3-0.9-10.4-3.5-14.4-7.6c-5-5-7.9-11.5-7.9-18c0-5.1,1.8-9.5,5.1-12.9
	c1.7-1.7,3.4-2.8,5.4-3.6c0.8-0.3,1.1-1.1,0.8-1.9c-0.3-0.8-1.1-1.1-1.9-0.8c-2.4,0.9-4.4,2.3-6.4,4.2c-3.8,3.8-6,9.1-6,14.9
	c0,7.3,3.2,14.6,8.7,20.1c5.7,5.7,13.1,8.7,20.1,8.7c4.3,0,8.4-1.1,11.9-3.4c0.7-0.4,0.9-1.4,0.4-2C40.8,93.9,39.9,93.7,39.2,94.1z"
	/>
<path d="M36,79.1c0.4,0,0.7-0.1,1-0.4l5.2-5.1c0.3-0.3,0.4-0.6,0.4-1c0-0.4-0.2-0.8-0.4-1L28.5,57.8c-0.6-0.6-1.5-0.6-2.1,0
	l-5.2,5.1c-0.3,0.3-0.4,0.6-0.4,1c0,0.4,0.2,0.8,0.4,1L35,78.7C35.3,79,35.7,79.1,36,79.1z M27.4,60.9l11.7,11.6L36,75.6L24.3,63.9
	L27.4,60.9z"/>
<path d="M33.8,86.1c-1-0.8-2.3-1.1-3.5-0.9C29,85.4,27.9,86,27.1,87c-1.6,2.1-1.2,5.1,0.9,6.7c0.8,0.6,1.8,1,2.9,1
	c0.2,0,0.5,0,0.7,0c1.3-0.2,2.4-0.8,3.2-1.9c0.8-1,1.1-2.3,0.9-3.5C35.5,88,34.8,86.9,33.8,86.1z M32.4,91c-0.3,0.4-0.7,0.7-1.2,0.7
	c-0.5,0.1-1-0.1-1.4-0.4c-0.8-0.6-1-1.8-0.4-2.6c0.4-0.5,0.9-0.7,1.5-0.7c0.4,0,0.8,0.1,1.1,0.4c0.4,0.3,0.7,0.7,0.7,1.2
	C32.8,90.1,32.7,90.6,32.4,91z"/>
<path d="M77.9,30.2c0.6-0.6,0.6-1.5,0-2.1c-0.5-0.5-1.4-0.6-1.9-0.1l-3.8-3.8l5.2-5.2l3.8,3.8l-0.9,0.9c-0.6,0.6-0.6,1.5,0,2.1
	c0.3,0.3,0.7,0.4,1,0.4c0.4,0,0.7-0.1,1-0.4l1-1c0.2,0.1,0.5,0.2,0.7,0.2c0.3,0,0.6-0.1,0.9-0.3l1.8-1.4l2,2c0.3,0.3,0.7,0.4,1,0.4
	c0.4,0,0.8-0.1,1-0.4c0.6-0.6,0.6-1.5,0-2.1L89,21.4l1.3-1.1c0.1-0.1,0.2-0.1,0.2-0.2l0.6-0.7l1.7,1.7c0.3,0.3,0.7,0.4,1,0.4
	c0.4,0,0.8-0.1,1-0.4c0.6-0.6,0.6-1.5,0-2.1L93,17.2l1.9-2.3l2.1,2.1c0.3,0.3,0.7,0.4,1,0.4c0.4,0,0.8-0.1,1-0.4
	c0.6-0.6,0.6-1.5,0-2.1l-2.3-2.3l2.5-3.1c0.9-1,0.9-2.4,0.1-3.3l-5.6-5.6c-0.9-0.8-2.3-0.8-3.3,0.1l-3,2.5L85.2,1
	c-0.6-0.6-1.5-0.6-2.1,0c-0.6,0.6-0.6,1.5,0,2.1l2,2L82.9,7L81,5.1c-0.6-0.6-1.5-0.6-2.1,0c-0.6,0.6-0.6,1.5,0,2.1l1.7,1.7l-0.7,0.6
	c-0.1,0.1-0.2,0.1-0.2,0.2L78.6,11l-1.7-1.7c-0.6-0.6-1.5-0.6-2.1,0c-0.6,0.6-0.6,1.5,0,2.1l2,2l-1.4,1.8c-0.4,0.5-0.4,1.3,0,1.8
	l-6.3,6.2c0,0,0,0,0,0c0,0,0,0,0,0L54.7,37.5c-4.7-3.5-9.1-5-13.2-4.4c-6.6,0.9-10.6,6.9-13,10.4c-0.6,0.9-1.2,1.7-1.5,2.1
	c-3.2,3.2-6,4.1-8.5,4.8c-0.8,0.2-1.2,1-1,1.8c0.2,0.7,0.8,1.1,1.4,1.1c0.1,0,0.2,0,0.4,0c3-0.8,6.3-2,9.8-5.5
	c0.5-0.5,1.1-1.4,1.9-2.5c2.3-3.3,5.7-8.4,11-9.2c3.2-0.5,6.8,0.8,10.7,3.6L42.2,50L39.2,47c-0.6-0.6-1.5-0.6-2.1,0L32,52.2
	c-0.3,0.3-0.4,0.6-0.4,1s0.2,0.8,0.4,1L45.8,68c0.3,0.3,0.7,0.4,1,0.4c0.4,0,0.7-0.1,1-0.4l5.2-5.1c0.3-0.3,0.4-0.6,0.4-1
	c0-0.4-0.2-0.8-0.4-1l-2.9-2.9l3-3c0.2,0.4,0.5,0.7,0.8,1c2.3,2.2,6.4,1.8,10.5,1.4c1.7-0.2,4.5-0.4,5.3-0.1c0,0.3-0.2,1.2-1.9,3.3
	c-3.1,4.1-8.3,6.9-11.7,8.7c-1.6,0.9-2.7,1.4-3.3,2c-4.2,4.2-5.2,8.1-6,11.4c-0.6,2.6-1.3,5.1-3.3,7.7c-0.5,0.6-0.4,1.6,0.3,2.1
	c0.3,0.2,0.6,0.3,0.9,0.3c0.4,0,0.9-0.2,1.2-0.6c2.4-3.1,3.1-6,3.8-8.8c0.8-3.3,1.6-6.4,5.2-10.1c0.3-0.3,1.5-0.9,2.6-1.5
	c3.4-1.8,9.2-4.8,12.7-9.5c1.6-2.2,3.2-4.6,2.1-6.5c-1.2-2.1-4.2-1.8-8.1-1.4c-3.1,0.3-6.9,0.7-8.2-0.6c-0.2-0.2-0.4-0.5-0.5-1.2
	L77.9,30.2z M64.2,39.6l-3.8-3.8l3.8-3.8l3.8,3.8L64.2,39.6z M58.4,45.4l-3.8-3.8c0,0,0,0,0,0l3.8-3.8l3.8,3.8L58.4,45.4z
	 M46.8,64.9L35.1,53.2l3.1-3.1c0,0,0,0,0,0l11.7,11.6L46.8,64.9z M44.2,52l8.3-8.3l3.8,3.8L48,55.8L44.2,52z M73.9,30.1l-3.8,3.8
	L66.3,30l3.8-3.8L73.9,30.1z M84.1,21.6l-5.6-5.6l3.4-4.3c0,0,0,0,0,0l10.3-8.5l4.8,4.8l-8.5,10.3L84.1,21.6z"/>
<path d="M18,70.8l-3.6,3.6c-0.3,0.3-0.4,0.6-0.4,1s0.2,0.8,0.4,1l9.1,9.1c0.3,0.3,0.7,0.4,1,0.4c0.4,0,0.7-0.1,1-0.4l2.5-2.5
	l2.7,0.6c0.9,0.2,1.7,0.3,2.6,0.3c2,0,3.9-0.5,5.7-1.6l7.4-4.5c0.7-0.4,0.9-1.3,0.5-2c-0.4-0.7-1.3-0.9-2-0.5l-7.4,4.5
	c-1.8,1.1-4,1.4-6,0.9l-2-0.5c-0.1-0.2-0.2-0.3-0.3-0.5L20,70.8C19.5,70.2,18.5,70.2,18,70.8z M24.5,82.5l-7.1-7l1.5-1.5l7.1,7
	L24.5,82.5z"/>
</svg>
